#!OML:ASF G:\ViconDB\ViconDB\414\test\team2\shane.ASF
:FULLY-SPECIFIED
:DEGREES
198
root 1.02085 16.5859 7.61371 -25.6777 65.0879 -19.0374
lowerback 8.42558 -1.66592 0.0374919
upperback 2.84512 -2.07167 2.87557
thorax -1.66914 -1.01282 3.15003
lowerneck -14.9904 -5.08597 -11.119
upperneck 23.3628 -6.43114 9.09796
head 10.6434 -2.83388 4.27026
rclavicle -8.11942e-014 3.1408e-014
rhumerus -50.4772 -8.68333 -70.8927
rradius 23.0241
rwrist 46.7399
rhand -26.9914 -11.5716
rfingers 7.12502
rthumb -0.411767 -41.551
lclavicle -8.11942e-014 3.1408e-014
lhumerus -15.9887 -17.9693 94.2842
lradius 36.4282
lwrist -23.8173
lhand -41.9357 5.3925
lfingers 7.12502
lthumb -14.8332 34.8416
rfemur -15.0018 -17.6822 19.6447
rtibia 26.2065
rfoot -21.3509 17.9983
rtoes -12.3849
lfemur 29.1522 -4.82893 -13.7213
ltibia -8.5875e-014
lfoot -12.9625 -34.9342
ltoes -5.7893
199
root 1.16045 16.5704 7.72542 -25.7892 65.8352 -19.0675
lowerback 8.30201 -1.7017 -0.0974889
upperback 2.83658 -2.13348 2.85149
thorax -1.60223 -1.0449 3.20248
lowerneck -14.8931 -5.14697 -11.195
upperneck 23.3302 -6.49356 9.05769
head 10.6219 -2.8754 4.25931
rclavicle -8.11942e-014 3.1408e-014
rhumerus -50.4772 -8.68333 -70.8927
rradius 23.0241
rwrist 46.7399
rhand -26.9914 -11.5716
rfingers 7.12502
rthumb -0.411767 -41.551
lclavicle -3.86388e-015 9.54166e-015
lhumerus -16.3011 -18.0295 94.4043
lradius 36.7077
lwrist -23.5392
lhand -42.0987 5.14707
lfingers 7.12502
lthumb -14.9902 34.5845
rfemur -14.397 -16.2189 19.3532
rtibia 26.6826
rfoot -21.1328 18.254
rtoes -14.0723
lfemur 29.7423 -5.319 -13.8934
ltibia -4.45278e-014
lfoot -12.4773 -35.1181
ltoes -5.96649
200
root 1.3031 16.5526 7.83651 -26.3079 66.6222 -19.5184
lowerback 8.07001 -1.78854 -0.0545389
upperback 2.87767 -2.24945 2.859
thorax -1.42649 -1.10432 3.18681
lowerneck -14.6694 -5.22789 -11.3719
upperneck 23.1983 -6.57693 9.05767
head 10.5476 -2.93421 4.27623
rclavicle 7.0494e-014 -2.44505e-014
rhumerus -50.5715 -9.59158 -69.5728
rradius 22.4389
rwrist 48.3215
rhand -27.0922 -11.6546
rfingers 7.12502
rthumb -0.50913 -41.6337
lclavicle 7.0494e-014 -2.44505e-014
lhumerus -16.8395 -17.9023 94.4672
lradius 37.1383
lwrist -24.0215
lhand -41.9899 5.17591
lfingers 7.12502
lthumb -14.8854 34.6211
rfemur -13.8704 -15.0374 19.1925
rtibia 27.2848
rfoot -20.7458 18.785
rtoes -13.0323
lfemur 30.4058 -5.90746 -13.9662
ltibia -2.22639e-014
lfoot -12.2317 -35.1356
ltoes -6.52245
201
root 1.454 16.5502 7.94567 -27.0298 67.3658 -20.2122
lowerback 7.88378 -1.84258 0.240821
upperback 2.82641 -2.30115 2.85605
thorax -1.3858 -1.12893 3.01597
lowerneck -14.4291 -5.29355 -11.5102
upperneck 23.1513 -6.65431 9.05942
head 10.4992 -2.98604 4.29091
rclavicle -7.07767e-014 7.7526e-015
rhumerus -50.6762 -10.3088 -68.8681
rradius 22.1358
rwrist 49.3378
rhand -26.915 -12.0393
rfingers 7.12502
rthumb -0.337969 -42.0188
lclavicle -7.07767e-014 7.7526e-015
lhumerus -17.4298 -18.2528 94.6617
lradius 37.5153
lwrist -23.6194
lhand -41.9319 5.19591
lfingers 7.12502
lthumb -14.8296 34.6453
rfemur -13.5979 -14.9937 19.1953
rtibia 27.8664
rfoot -19.0457 19.924
rtoes -11.7653
lfemur 31.0132 -6.48195 -13.9708
ltibia -3.18055e-014
lfoot -11.8917 -35.2169
ltoes -7.38689
202
root 1.60834 16.5575 8.05329 -28.0982 68.1343 -21.2942
lowerback 7.6639 -1.92364 0.491534
upperback 2.78241 -2.39 2.97879
thorax -1.31023 -1.1724 3.0021
lowerneck -14.1579 -5.35991 -11.744
upperneck 23.0626 -6.71055 9.06044
head 10.4313 -3.03759 4.32402
rclavicle 1.76701e-014 2.14687e-014
rhumerus -50.7263 -11.2767 -67.6835
rradius 21.6377
rwrist 51.1523
rhand -27.2366 -11.9599
rfingers 7.12502
rthumb -0.648563 -41.9387
lclavicle 1.76701e-014 2.14687e-014
lhumerus -18.0536 -18.2544 94.9928
lradius 37.7058
lwrist -23.4681
lhand -41.7485 5.06713
lfingers 7.12502
lthumb -14.6529 34.5294
rfemur -13.3437 -15.2053 19.2607
rtibia 28.4731
rfoot -16.8865 19.8481
rtoes -10.0595
lfemur 31.5749 -7.15068 -13.8466
ltibia -3.49861e-014
lfoot -11.2669 -35.2764
ltoes -8.29784
